<svg xmlns="http://www.w3.org/2000/svg" xmlns:xlink="http://www.w3.org/1999/xlink" width="1080" zoomAndPan="magnify" viewBox="0 0 810 809.999993" height="1080" preserveAspectRatio="xMidYMid meet" version="1.0"><defs><clipPath id="b03a01ecbd"><path d="M 23.878906 23.878906 L 786.121094 23.878906 L 786.121094 786.121094 L 23.878906 786.121094 Z M 23.878906 23.878906 " clip-rule="nonzero"/></clipPath><clipPath id="dac6f3c14e"><path d="M 405 23.878906 C 194.511719 23.878906 23.878906 194.511719 23.878906 405 C 23.878906 615.488281 194.511719 786.121094 405 786.121094 C 615.488281 786.121094 786.121094 615.488281 786.121094 405 C 786.121094 194.511719 615.488281 23.878906 405 23.878906 Z M 405 23.878906 " clip-rule="nonzero"/></clipPath></defs><g clip-path="url(#b03a01ecbd)"><g clip-path="url(#dac6f3c14e)"><path fill="#5b4070" d="M 23.878906 23.878906 L 786.121094 23.878906 L 786.121094 786.121094 L 23.878906 786.121094 Z M 23.878906 23.878906 " fill-opacity="1" fill-rule="nonzero"/></g></g><path fill="#1e1223" d="M 243.914062 598.664062 C 243.914062 598.664062 211.664062 598.664062 211.664062 566.414062 C 211.664062 534.164062 243.914062 437.414062 405.164062 437.414062 C 566.414062 437.414062 598.664062 534.164062 598.664062 566.414062 C 598.664062 598.664062 566.414062 598.664062 566.414062 598.664062 Z M 405.164062 405.164062 C 406.746094 405.164062 408.328125 405.125 409.910156 405.046875 C 411.492188 404.96875 413.070312 404.851562 414.644531 404.695312 C 416.222656 404.542969 417.792969 404.347656 419.359375 404.117188 C 420.925781 403.882812 422.484375 403.613281 424.039062 403.304688 C 425.589844 402.996094 427.136719 402.648438 428.671875 402.261719 C 430.207031 401.878906 431.734375 401.457031 433.246094 400.996094 C 434.761719 400.535156 436.265625 400.039062 437.757812 399.507812 C 439.246094 398.972656 440.722656 398.402344 442.1875 397.796875 C 443.648438 397.191406 445.097656 396.550781 446.527344 395.875 C 447.960938 395.195312 449.375 394.484375 450.769531 393.738281 C 452.167969 392.992188 453.542969 392.210938 454.902344 391.398438 C 456.261719 390.582031 457.597656 389.738281 458.914062 388.855469 C 460.230469 387.976562 461.523438 387.066406 462.796875 386.121094 C 464.070312 385.179688 465.316406 384.207031 466.539062 383.203125 C 467.765625 382.195312 468.960938 381.164062 470.136719 380.101562 C 471.308594 379.035156 472.457031 377.945312 473.574219 376.824219 C 474.695312 375.707031 475.785156 374.558594 476.851562 373.386719 C 477.914062 372.210938 478.945312 371.015625 479.953125 369.789062 C 480.957031 368.566406 481.929688 367.320312 482.871094 366.046875 C 483.816406 364.773438 484.726562 363.480469 485.605469 362.164062 C 486.488281 360.847656 487.332031 359.511719 488.148438 358.152344 C 488.960938 356.792969 489.742188 355.417969 490.488281 354.019531 C 491.234375 352.625 491.945312 351.210938 492.625 349.777344 C 493.300781 348.347656 493.941406 346.898438 494.546875 345.4375 C 495.152344 343.972656 495.722656 342.496094 496.257812 341.007812 C 496.789062 339.515625 497.285156 338.011719 497.746094 336.496094 C 498.207031 334.984375 498.628906 333.457031 499.011719 331.921875 C 499.398438 330.386719 499.746094 328.839844 500.054688 327.289062 C 500.363281 325.734375 500.632812 324.175781 500.867188 322.609375 C 501.097656 321.042969 501.292969 319.472656 501.445312 317.894531 C 501.601562 316.320312 501.71875 314.742188 501.796875 313.160156 C 501.875 311.578125 501.914062 309.996094 501.914062 308.414062 C 501.914062 306.828125 501.875 305.246094 501.796875 303.664062 C 501.71875 302.082031 501.601562 300.503906 501.445312 298.929688 C 501.292969 297.355469 501.097656 295.78125 500.867188 294.214844 C 500.632812 292.648438 500.363281 291.089844 500.054688 289.539062 C 499.746094 287.984375 499.398438 286.441406 499.011719 284.90625 C 498.628906 283.367188 498.207031 281.84375 497.746094 280.328125 C 497.285156 278.8125 496.789062 277.308594 496.257812 275.820312 C 495.722656 274.328125 495.152344 272.851562 494.546875 271.386719 C 493.941406 269.925781 493.300781 268.476562 492.625 267.046875 C 491.945312 265.617188 491.234375 264.203125 490.488281 262.804688 C 489.742188 261.410156 488.960938 260.03125 488.148438 258.671875 C 487.332031 257.316406 486.488281 255.976562 485.605469 254.660156 C 484.726562 253.34375 483.816406 252.050781 482.871094 250.777344 C 481.929688 249.507812 480.957031 248.257812 479.953125 247.035156 C 478.945312 245.8125 477.914062 244.613281 476.851562 243.4375 C 475.785156 242.265625 474.695312 241.121094 473.574219 240 C 472.457031 238.878906 471.308594 237.789062 470.136719 236.726562 C 468.960938 235.664062 467.765625 234.628906 466.539062 233.625 C 465.316406 232.621094 464.070312 231.644531 462.796875 230.703125 C 461.523438 229.757812 460.230469 228.847656 458.914062 227.96875 C 457.597656 227.089844 456.261719 226.242188 454.902344 225.425781 C 453.542969 224.613281 452.167969 223.832031 450.769531 223.085938 C 449.375 222.339844 447.960938 221.628906 446.527344 220.953125 C 445.097656 220.273438 443.648438 219.632812 442.1875 219.027344 C 440.722656 218.421875 439.246094 217.851562 437.757812 217.316406 C 436.265625 216.785156 434.761719 216.289062 433.246094 215.828125 C 431.734375 215.367188 430.207031 214.945312 428.671875 214.5625 C 427.136719 214.175781 425.589844 213.832031 424.039062 213.523438 C 422.484375 213.210938 420.925781 212.941406 419.359375 212.710938 C 417.792969 212.476562 416.222656 212.285156 414.644531 212.128906 C 413.070312 211.972656 411.492188 211.855469 409.910156 211.777344 C 408.328125 211.703125 406.746094 211.664062 405.164062 211.664062 C 403.578125 211.664062 401.996094 211.703125 400.414062 211.777344 C 398.832031 211.855469 397.253906 211.972656 395.679688 212.128906 C 394.105469 212.285156 392.53125 212.476562 390.964844 212.710938 C 389.398438 212.941406 387.839844 213.210938 386.289062 213.523438 C 384.734375 213.832031 383.191406 214.175781 381.65625 214.5625 C 380.117188 214.945312 378.59375 215.367188 377.078125 215.828125 C 375.5625 216.289062 374.058594 216.785156 372.570312 217.316406 C 371.078125 217.851562 369.601562 218.421875 368.136719 219.027344 C 366.675781 219.632812 365.226562 220.273438 363.796875 220.953125 C 362.367188 221.628906 360.953125 222.339844 359.554688 223.085938 C 358.160156 223.832031 356.78125 224.613281 355.421875 225.425781 C 354.066406 226.242188 352.726562 227.089844 351.410156 227.96875 C 350.09375 228.847656 348.800781 229.757812 347.527344 230.703125 C 346.257812 231.644531 345.007812 232.621094 343.785156 233.625 C 342.5625 234.628906 341.363281 235.664062 340.1875 236.726562 C 339.015625 237.789062 337.871094 238.878906 336.75 240 C 335.628906 241.121094 334.539062 242.265625 333.476562 243.4375 C 332.414062 244.613281 331.378906 245.8125 330.375 247.035156 C 329.371094 248.257812 328.394531 249.507812 327.453125 250.777344 C 326.507812 252.050781 325.597656 253.34375 324.71875 254.660156 C 323.839844 255.976562 322.992188 257.316406 322.175781 258.671875 C 321.363281 260.03125 320.582031 261.410156 319.835938 262.804688 C 319.089844 264.203125 318.378906 265.617188 317.703125 267.046875 C 317.023438 268.476562 316.382812 269.925781 315.777344 271.386719 C 315.171875 272.851562 314.601562 274.328125 314.066406 275.820312 C 313.535156 277.308594 313.039062 278.8125 312.578125 280.328125 C 312.117188 281.84375 311.695312 283.367188 311.3125 284.90625 C 310.925781 286.441406 310.582031 287.984375 310.273438 289.539062 C 309.960938 291.089844 309.691406 292.648438 309.460938 294.214844 C 309.226562 295.78125 309.035156 297.355469 308.878906 298.929688 C 308.722656 300.503906 308.605469 302.082031 308.527344 303.664062 C 308.453125 305.246094 308.414062 306.828125 308.414062 308.414062 C 308.414062 309.996094 308.453125 311.578125 308.527344 313.160156 C 308.605469 314.742188 308.722656 316.320312 308.878906 317.894531 C 309.035156 319.472656 309.226562 321.042969 309.460938 322.609375 C 309.691406 324.175781 309.960938 325.734375 310.273438 327.289062 C 310.582031 328.839844 310.925781 330.386719 311.3125 331.921875 C 311.695312 333.457031 312.117188 334.984375 312.578125 336.496094 C 313.039062 338.011719 313.535156 339.515625 314.066406 341.007812 C 314.601562 342.496094 315.171875 343.972656 315.777344 345.4375 C 316.382812 346.898438 317.023438 348.347656 317.703125 349.777344 C 318.378906 351.210938 319.089844 352.625 319.835938 354.019531 C 320.582031 355.417969 321.363281 356.792969 322.175781 358.152344 C 322.992188 359.511719 323.839844 360.847656 324.71875 362.164062 C 325.597656 363.480469 326.507812 364.773438 327.453125 366.046875 C 328.394531 367.320312 329.371094 368.566406 330.375 369.789062 C 331.378906 371.015625 332.414062 372.210938 333.476562 373.386719 C 334.539062 374.558594 335.628906 375.707031 336.75 376.824219 C 337.871094 377.945312 339.015625 379.035156 340.1875 380.101562 C 341.363281 381.164062 342.5625 382.195312 343.785156 383.203125 C 345.007812 384.207031 346.257812 385.179688 347.527344 386.121094 C 348.800781 387.066406 350.09375 387.976562 351.410156 388.855469 C 352.726562 389.738281 354.066406 390.582031 355.421875 391.398438 C 356.78125 392.210938 358.160156 392.992188 359.554688 393.738281 C 360.953125 394.484375 362.367188 395.195312 363.796875 395.875 C 365.226562 396.550781 366.675781 397.191406 368.136719 397.796875 C 369.601562 398.402344 371.078125 398.972656 372.570312 399.507812 C 374.058594 400.039062 375.5625 400.535156 377.078125 400.996094 C 378.59375 401.457031 380.117188 401.878906 381.65625 402.261719 C 383.191406 402.648438 384.734375 402.996094 386.289062 403.304688 C 387.839844 403.613281 389.398438 403.882812 390.964844 404.117188 C 392.53125 404.347656 394.105469 404.542969 395.679688 404.695312 C 397.253906 404.851562 398.832031 404.96875 400.414062 405.046875 C 401.996094 405.125 403.578125 405.164062 405.164062 405.164062 " fill-opacity="1" fill-rule="nonzero"/></svg>